<?xml version="1.0" encoding="iso-8859-1"?>
<!-- Generator: Adobe Illustrator 18.1.1, SVG Export Plug-In . SVG Version: 6.00 Build 0)  -->
<svg version="1.1" id="Capa_1" xmlns="http://www.w3.org/2000/svg" xmlns:xlink="http://www.w3.org/1999/xlink" x="0px" y="0px"
	 viewBox="0 0 30 30" style="enable-background:new 0 0 30 30;" xml:space="preserve">
<g>
	<g>
		<circle style="fill:#010002;" cx="14" cy="9" r="3"/>
		<circle style="fill:#010002;" cx="22" cy="3" r="3"/>
		<path style="fill:#010002;" d="M10.023,12C9.39,11.162,9,10.131,9,9c0-0.343,0.035-0.677,0.101-1C6.968,8,2,8,2,8s-2,0-2,2
			c0,0.778,0,12,0,12h6v-6c0-4,4-4,4-4H10.023z"/>
		<circle style="fill:#010002;" cx="6" cy="3" r="3"/>
		<path style="fill:#010002;" d="M28,15.35V10c0,0,0-2-2-2h-7.102C18.965,8.323,19,8.657,19,9c0,1.131-0.391,2.162-1.021,3H18
			c0.477,0,0.878,0.073,1.246,0.173c-1.457,0.288-2.787,0.928-3.898,1.827C13.008,14,10,14,10,14s-2,0-2,2c0,0.777,0,12,0,12h7.35
			c1.545,1.248,3.51,1.999,5.65,2c4.971-0.002,8.998-4.029,9-9C29.999,18.857,29.248,16.895,28,15.35z M21,27.883
			c-3.801-0.009-6.876-3.084-6.885-6.883c0.009-3.801,3.084-6.876,6.885-6.885c3.799,0.009,6.874,3.084,6.883,6.885
			C27.874,24.799,24.799,27.874,21,27.883z"/>
		<rect x="16" y="20" style="fill:#010002;" width="10" height="2"/>
	</g>
</g>
<g>
</g>
<g>
</g>
<g>
</g>
<g>
</g>
<g>
</g>
<g>
</g>
<g>
</g>
<g>
</g>
<g>
</g>
<g>
</g>
<g>
</g>
<g>
</g>
<g>
</g>
<g>
</g>
<g>
</g>
</svg>
